<?xml version="1.0" standalone="no"?>
<!DOCTYPE svg PUBLIC "-//W3C//DTD SVG 20010904//EN"
 "http://www.w3.org/TR/2001/REC-SVG-20010904/DTD/svg10.dtd">
<svg version="1.0" xmlns="http://www.w3.org/2000/svg"
 width="526.000000pt" height="296.000000pt" viewBox="0 0 526.000000 296.000000"
 preserveAspectRatio="xMidYMid meet">

<g transform="translate(0.000000,296.000000) scale(0.100000,-0.100000)"
fill="#000000" stroke="none">
<path d="M414 2603 l1 -357 -55 3 c-86 4 -183 -46 -216 -112 -13 -25 -15 -48
-10 -123 6 -71 4 -93 -6 -97 -8 -2 -9 -8 -4 -13 5 -5 11 -4 13 4 6 15 29 16
38 2 3 -6 -1 -17 -10 -26 -19 -20 -12 -32 9 -15 13 11 16 8 22 -16 12 -57 16
-69 40 -120 13 -28 24 -57 24 -62 0 -6 4 -11 9 -11 5 0 9 -6 8 -12 -1 -40 3
-49 21 -40 12 6 23 2 39 -15 12 -13 17 -23 12 -23 -6 0 -9 -7 -5 -15 3 -8 -2
-19 -12 -24 -15 -9 -15 -10 5 -11 12 0 24 6 26 13 3 6 6 0 6 -14 1 -14 7 -33
14 -43 13 -18 15 -17 42 9 34 35 130 241 145 313 12 55 10 109 -9 227 -17 106
-17 107 -64 157 l-44 45 3 284 c2 156 6 321 9 367 l7 82 -29 0 -29 0 0 -357z
m-38 -516 c13 -13 41 -7 67 14 34 26 62 13 62 -28 1 -15 4 -38 8 -49 6 -18 1
-25 -28 -43 -19 -11 -38 -27 -41 -36 -3 -8 3 -42 15 -76 11 -34 18 -66 15 -71
-4 -6 -19 -8 -35 -6 -20 3 -34 -1 -46 -14 -9 -10 -22 -18 -30 -18 -9 0 -13 -8
-11 -22 2 -19 11 -24 53 -29 35 -4 40 -6 18 -7 -63 -4 -45 -32 20 -32 30 -1
31 -1 13 -15 -47 -36 -123 2 -147 72 -8 26 -14 32 -20 22 -5 -8 -9 -9 -9 -4 0
6 -11 23 -25 39 -14 16 -25 33 -25 38 0 5 -7 16 -15 24 -20 20 -20 104 0 151
8 19 15 49 15 65 0 40 45 60 101 44 21 -6 41 -15 45 -19z m162 -219 c-8 -22
-36 -34 -50 -20 -10 10 -10 15 2 22 21 14 52 12 48 -2z m-83 -118 c-3 -5 -20
-10 -36 -10 -18 0 -28 4 -24 10 3 6 20 10 36 10 18 0 28 -4 24 -10z"/>
<path d="M255 1950 c-4 -6 8 -10 28 -10 19 0 40 -7 47 -15 10 -12 9 -15 -4
-15 -11 0 -14 5 -10 12 5 8 2 9 -10 5 -10 -4 -22 -7 -27 -7 -11 0 -12 -29 -1
-31 41 -8 118 -4 124 5 9 13 0 48 -16 58 -17 11 -124 9 -131 -2z"/>
<path d="M530 2880 c0 -47 4 -80 10 -80 6 0 10 33 10 80 0 47 -4 80 -10 80 -6
0 -10 -33 -10 -80z"/>
<path d="M722 2631 c1 -181 6 -327 10 -325 3 2 9 -2 12 -8 2 -7 5 39 4 102 0
63 5 189 11 280 6 91 11 191 11 223 0 55 -1 57 -26 57 l-26 0 4 -329z"/>
<path d="M1000 2916 c0 -24 3 -64 6 -89 6 -45 7 -45 50 -49 43 -3 44 -3 44 28
0 17 3 59 6 93 l7 61 -57 0 -56 0 0 -44z"/>
<path d="M1645 2936 c-22 -14 -55 -44 -72 -69 -82 -113 -105 -258 -99 -605 4
-213 -2 -378 -19 -512 -2 -19 -2 -27 1 -17 3 9 10 17 16 17 7 0 8 -17 4 -47
-5 -34 -4 -44 3 -33 6 8 11 35 12 60 1 25 4 58 8 74 8 37 30 47 23 11 -3 -18
1 -30 14 -40 17 -12 19 -30 20 -197 1 -101 2 -196 3 -212 l1 -29 37 44 c92
107 192 193 277 234 54 27 181 44 231 31 62 -16 205 -188 241 -289 8 -22 14
-59 14 -83 0 -38 4 -46 25 -56 14 -6 28 -23 32 -37 3 -14 10 -29 15 -32 5 -3
10 -17 10 -30 1 -13 11 -35 22 -48 15 -17 17 -25 8 -28 -6 -3 -10 -8 -8 -12 3
-4 1 -23 -3 -43 -8 -33 -7 -35 19 -36 23 0 28 3 28 26 0 15 -8 32 -17 38 -9 7
-13 16 -8 20 4 4 19 -6 35 -23 19 -22 46 -36 92 -49 36 -9 68 -22 71 -27 4 -6
15 -6 25 -2 30 12 64 15 64 4 0 -9 -14 -13 -37 -10 -7 1 -13 -3 -13 -9 0 -5 5
-10 10 -10 6 0 10 -7 10 -15 0 -12 6 -14 28 -8 29 8 30 8 229 -1 130 -6 168
-2 157 15 -3 5 -1 9 5 9 5 0 11 -5 13 -12 3 -8 13 -8 39 1 46 18 96 23 103 12
3 -5 16 -7 28 -3 15 4 19 2 13 -8 -5 -8 -3 -11 6 -8 20 7 49 -10 49 -29 0 -15
-2 -15 -18 0 -24 22 -32 21 -32 -4 0 -12 -4 -17 -11 -14 -6 4 -8 13 -5 21 3 8
1 14 -4 14 -5 0 -12 -9 -15 -20 -7 -23 -17 -25 -45 -8 -15 10 -22 10 -32 0 -9
-9 -8 -12 8 -12 33 0 54 -23 57 -63 3 -32 1 -37 -18 -37 -33 0 -59 -24 -52
-49 3 -11 1 -21 -4 -21 -13 0 -49 22 -72 44 -14 13 -28 16 -49 12 -38 -8 -27
10 12 19 36 8 42 17 32 45 -8 22 -9 22 -39 -9 -31 -31 -55 -43 -36 -19 6 9 6
21 -2 35 -11 22 -12 21 -35 -19 -19 -34 -25 -39 -34 -26 -41 55 -68 80 -77 71
-6 -6 -5 -14 6 -23 13 -11 13 -14 1 -24 -24 -17 2 -42 54 -53 34 -7 44 -13 42
-26 -2 -12 2 -15 13 -11 10 4 13 13 10 25 -4 11 -2 19 3 19 5 0 12 -9 15 -19
3 -14 15 -21 38 -23 29 -2 35 -7 37 -30 3 -27 -11 -38 -22 -19 -3 5 -15 11
-26 14 -11 3 -18 1 -15 -3 3 -5 1 -11 -5 -15 -6 -4 -8 -11 -5 -16 3 -5 -1 -6
-10 -2 -12 4 -16 14 -13 34 4 24 2 27 -10 17 -11 -10 -17 -8 -28 7 -8 10 -14
22 -14 27 0 4 -9 8 -20 8 -23 0 -24 -4 -10 -31 6 -10 18 -19 28 -19 9 0 23 -9
30 -21 8 -12 9 -18 4 -15 -6 3 -12 -1 -16 -9 -8 -21 -29 -19 -44 5 -15 25 -28
25 -49 0 -17 -19 -17 -19 -46 13 -25 29 -29 30 -38 15 -11 -20 -40 -24 -37 -5
2 7 -6 11 -17 10 -10 -1 -28 4 -40 10 -11 6 -29 11 -40 11 -15 1 -19 7 -18 24
2 16 -2 22 -18 22 -11 0 -17 5 -14 10 3 6 1 10 -5 10 -7 0 -9 8 -5 22 6 17 4
20 -11 14 -17 -7 -34 8 -34 30 0 6 25 19 55 29 35 11 55 22 55 32 0 12 -7 14
-30 9 -22 -4 -29 -2 -24 5 4 7 1 10 -7 7 -7 -2 -16 -13 -19 -24 -5 -18 -18
-23 -62 -27 -9 -1 -16 -6 -15 -12 1 -6 -19 -10 -47 -10 -40 0 -49 -3 -52 -18
-3 -21 -32 -57 -46 -57 -4 0 -8 10 -8 23 0 16 -3 18 -9 8 -7 -10 -10 -10 -16
-1 -4 7 -2 16 6 20 10 7 10 12 1 23 -14 16 -5 50 10 41 6 -4 8 2 3 15 -4 15
-1 27 13 39 27 23 37 68 16 76 -24 9 -28 7 -15 -8 9 -11 6 -18 -19 -36 -16
-12 -30 -27 -30 -34 0 -7 -21 -36 -48 -65 l-47 -53 -29 28 c-25 26 -28 34 -23
79 9 82 16 116 26 129 5 6 9 14 8 17 -1 3 15 30 35 60 21 30 40 68 44 84 5 27
2 32 -28 43 -39 14 -88 54 -88 71 0 14 -66 82 -73 75 -2 -2 -12 14 -22 37 -20
43 -55 72 -55 44 0 -8 4 -15 9 -15 30 0 16 -203 -15 -235 -8 -7 -14 -17 -14
-22 0 -4 -17 -31 -38 -58 -21 -28 -52 -75 -68 -105 -16 -30 -35 -61 -41 -68
-7 -7 -13 -18 -13 -24 0 -10 -24 -68 -42 -102 -20 -37 -39 -102 -43 -142 -4
-44 -47 -138 -59 -127 -3 3 -6 -1 -6 -10 0 -10 -3 -16 -7 -16 -19 3 -33 -2
-33 -11 0 -8 -58 -98 -77 -120 -2 -2 -7 1 -11 7 -5 8 -10 8 -17 -1 -19 -22
-21 -82 -6 -246 5 -58 9 -117 10 -132 l1 -28 621 0 620 0 42 29 c23 15 69 42
102 59 33 18 83 44 110 60 28 16 68 35 89 42 22 7 68 28 104 47 43 23 75 33
96 31 35 -3 34 8 23 -160 l-8 -108 127 0 127 0 -7 38 c-3 21 -9 77 -12 125 -6
72 -4 90 9 105 9 9 17 37 19 62 2 37 6 45 23 45 19 0 20 -8 23 -188 l2 -187
305 0 305 0 0 219 c0 121 2 225 5 233 4 9 21 12 61 10 32 -2 61 1 67 7 6 6 28
11 49 11 52 0 69 -32 43 -86 -9 -20 -15 -48 -12 -63 6 -30 -10 -115 -28 -151
-7 -14 -32 -45 -55 -69 -26 -27 -44 -56 -47 -77 l-6 -34 247 0 c216 0 246 2
246 16 0 8 -4 12 -10 9 -6 -4 -10 8 -10 30 0 23 -4 34 -10 30 -7 -4 -9 2 -4
19 7 30 -3 34 -22 9 -13 -17 -13 -17 -14 2 0 22 19 78 37 111 11 18 8 24 -15
45 -27 24 -27 24 -4 27 32 5 27 21 -8 29 -16 3 -30 12 -30 19 0 7 6 11 14 8
15 -6 56 12 68 29 3 6 47 13 97 15 82 4 91 3 97 -14 11 -30 46 -54 82 -54 35
0 68 23 57 40 -9 14 13 50 31 50 12 0 14 16 12 98 -3 92 -4 97 -26 100 -13 2
-24 -3 -28 -12 -9 -24 -206 -10 -250 18 -32 20 -33 23 -32 81 2 47 8 70 30
105 25 39 27 46 13 56 -8 6 -15 23 -15 38 0 18 -5 26 -12 24 -15 -5 -33 17
-75 93 -29 51 -30 59 -18 82 13 25 12 26 -17 32 -16 4 -32 4 -35 1 -7 -7 52
-129 77 -160 13 -17 13 -18 0 -11 -8 4 -25 17 -37 28 -31 28 -29 14 7 -38 29
-43 40 -95 20 -95 -21 0 -70 31 -80 50 -16 31 -32 24 -28 -12 2 -24 -1 -33
-14 -36 -12 -2 -15 2 -11 17 3 12 1 21 -6 21 -6 0 -11 5 -11 11 0 5 3 8 8 6 4
-2 20 12 37 32 16 20 21 29 10 20 -37 -30 -51 -34 -30 -8 11 13 26 28 33 32
12 8 17 47 5 47 -13 0 -64 -65 -88 -114 -24 -49 -35 -43 -15 9 7 17 7 24 0 20
-5 -3 -13 -23 -16 -44 -5 -34 -8 -37 -33 -33 -38 5 -58 -20 -43 -54 9 -19 9
-29 0 -44 -7 -11 -16 -20 -19 -20 -4 0 -9 -14 -13 -30 -8 -40 -43 -53 -126
-47 -108 9 -100 -7 -100 201 0 118 4 186 11 193 8 8 8 17 0 31 -8 14 -11 194
-11 576 l0 556 -80 0 c-79 0 -80 0 -80 -25 0 -15 -6 -25 -14 -25 -7 0 -16 -10
-20 -22 -9 -35 -8 -38 14 -38 11 0 20 7 20 15 0 8 5 15 10 15 6 0 10 -18 10
-40 0 -22 -4 -40 -9 -40 -5 0 -13 -10 -16 -21 -6 -17 -9 -19 -17 -8 -7 11 -11
11 -15 2 -2 -7 -13 -13 -24 -13 -16 0 -19 7 -19 44 0 24 -3 65 -7 92 -8 47 -8
45 -14 -41 l-5 -90 -4 100 c-4 93 -5 89 -10 -65 l-6 -165 -2 244 c-1 134 1
242 4 238 3 -3 6 -22 6 -42 0 -23 4 -35 11 -32 16 5 21 55 8 71 -5 6 -10 58
-10 115 0 56 -2 105 -5 109 -3 3 -6 -9 -6 -26 0 -18 -4 -32 -10 -32 -14 0 -12
38 5 85 8 21 11 44 7 50 -4 5 -5 51 -3 100 3 65 6 82 11 60 7 -26 8 -24 10 20
2 28 5 40 7 28 3 -14 12 -23 23 -23 10 0 20 9 23 23 2 12 8 30 12 40 7 16 -7
17 -214 17 l-221 0 5 -222 c3 -123 7 -466 10 -762 l5 -539 35 -39 c19 -21 35
-42 35 -47 0 -5 6 -16 13 -23 7 -7 30 -34 51 -60 32 -40 35 -48 20 -48 -17 -1
-17 -2 -4 -13 9 -7 25 -34 37 -62 20 -45 20 -51 5 -56 -14 -5 -14 -7 2 -16 13
-7 16 -15 10 -24 -5 -8 -7 -22 -6 -31 2 -11 -3 -18 -12 -18 -9 0 -16 -7 -16
-15 0 -8 -7 -15 -15 -15 -8 0 -15 -5 -15 -10 0 -6 -8 -10 -17 -8 -12 2 -18 -3
-17 -14 1 -10 -2 -18 -7 -18 -5 0 -9 7 -9 15 0 8 -5 15 -11 15 -7 0 -9 11 -5
28 3 15 3 21 0 15 -6 -13 -61 -17 -88 -7 -22 9 -20 34 6 61 34 36 13 38 -26 2
-27 -24 -33 -35 -24 -41 8 -5 2 -6 -14 -2 -23 5 -28 3 -28 -12 0 -9 -3 -15 -6
-11 -4 3 -20 -1 -36 -9 -44 -23 -44 -11 -1 18 86 58 213 208 213 252 0 12 -13
-2 -34 -37 -31 -51 -55 -77 -157 -168 -64 -57 -158 -40 -242 44 l-39 39 3 -58
c3 -43 1 -58 -8 -56 -7 1 -13 -2 -13 -6 0 -7 -98 -32 -175 -45 -11 -2 -19 -9
-17 -15 5 -26 -242 -7 -379 28 -42 11 -98 29 -125 41 -27 13 -56 23 -65 24
-23 3 -59 37 -59 57 0 28 48 24 52 -4 2 -13 11 -24 22 -26 18 -4 18 -2 -3 26
-11 17 -21 34 -21 39 0 4 -11 25 -25 45 -32 47 -34 73 -4 58 11 -6 25 -9 32
-7 7 2 -3 12 -22 21 -47 25 -78 61 -112 133 -45 96 -153 248 -193 270 -14 8
-2 13 60 23 109 19 176 19 169 1 -5 -12 -3 -12 12 0 10 8 20 17 24 21 3 4 23
17 45 27 l39 20 -41 -4 c-51 -4 -76 8 -53 27 9 7 24 29 32 48 40 91 77 188 83
218 4 18 10 35 14 37 7 5 40 -54 40 -72 0 -4 17 -27 38 -50 25 -27 42 -39 51
-34 7 4 24 6 38 3 25 -5 26 -4 21 45 -3 30 -14 62 -28 81 -13 17 -21 35 -17
38 3 4 0 13 -8 21 -17 16 -20 33 -6 33 8 0 -1 32 -26 90 -6 14 -30 86 -54 160
-24 74 -55 150 -68 170 -135 199 -180 257 -264 338 l-75 72 -268 0 c-266 0
-269 0 -309 -24z m477 -120 c29 -16 70 -34 91 -42 58 -21 202 -149 252 -224
52 -79 75 -124 75 -145 0 -8 11 -20 25 -25 14 -5 25 -12 25 -16 0 -3 -7 -4
-15 0 -16 6 -19 -3 -9 -28 3 -8 13 -13 22 -10 15 5 15 4 0 -6 -26 -16 -22 -33
5 -27 l22 6 -21 -17 c-14 -11 -24 -33 -27 -62 -3 -24 -11 -46 -17 -48 -6 -2
-20 -23 -31 -45 -25 -49 -67 -97 -86 -97 -8 0 -24 -7 -37 -15 -30 -20 -81 -16
-95 7 -10 16 -3 26 44 73 54 54 55 56 55 114 0 45 4 60 16 65 9 3 20 4 25 0
11 -7 11 7 0 25 -6 9 -5 24 2 38 14 31 -2 43 -60 43 -48 0 -57 -16 -16 -26 44
-11 53 -26 29 -45 -12 -9 -32 -20 -45 -24 -13 -4 -41 -23 -62 -42 -37 -33 -66
-40 -41 -10 15 17 45 108 38 114 -10 10 -38 -7 -43 -26 -6 -24 -54 -37 -81
-22 -11 6 -31 34 -45 63 -15 29 -40 69 -57 88 -28 32 -35 35 -88 35 -50 0 -65
-5 -114 -37 -31 -21 -58 -44 -61 -50 -2 -7 -8 -10 -12 -6 -4 4 1 20 11 35 33
50 29 82 -17 129 -30 30 -39 47 -37 67 4 27 45 87 60 87 11 0 67 62 68 76 0 6
11 16 25 22 14 6 25 16 25 21 0 31 134 22 202 -13z m1915 -298 c-3 -8 -6 -5
-6 6 -1 11 2 17 5 13 3 -3 4 -12 1 -19z m-1959 -203 c22 -47 44 -182 34 -202
-18 -33 -132 -25 -160 10 -28 36 -21 61 29 117 27 30 49 59 49 65 0 12 20 35
30 35 4 0 12 -11 18 -25z m72 -39 c0 -15 -14 -35 -21 -30 -15 9 -10 34 6 34 8
0 15 -2 15 -4z m452 -38 c-7 -7 -12 -8 -12 -2 0 14 12 26 19 19 2 -3 -1 -11
-7 -17z m28 -28 c0 -11 -4 -20 -10 -20 -5 0 -10 9 -10 20 0 11 5 20 10 20 6 0
10 -9 10 -20z m-260 0 c0 -5 -7 -15 -15 -22 -9 -7 -22 -19 -30 -25 -32 -29
-36 -10 -5 22 34 35 50 43 50 25z m-853 -352 c-3 -8 -6 -5 -6 6 -1 11 2 17 5
13 3 -3 4 -12 1 -19z m794 -383 c7 -13 3 -12 -10 5 -11 14 -21 30 -21 35 0 11
14 -7 31 -40z m1094 -566 c4 -5 -17 5 -45 23 -28 17 -53 36 -56 40 -3 5 17 -5
45 -22 28 -18 53 -36 56 -41z m333 55 c7 -5 -51 -64 -63 -64 -6 0 -19 6 -29
13 -18 13 -18 15 -2 40 15 22 22 25 54 20 20 -3 38 -7 40 -9z m-458 -14 c-24
-15 -37 -11 -16 5 11 8 22 12 25 9 3 -3 -1 -9 -9 -14z m230 2 c0 -4 -13 -13
-29 -20 -16 -7 -31 -22 -34 -33 -3 -12 -10 -18 -16 -14 -11 6 -7 13 32 56 17
19 47 26 47 11z m265 -13 c9 -28 -19 -59 -37 -41 -9 9 -9 17 2 37 16 31 27 32
35 4z m-857 -26 c-10 -2 -28 -2 -40 0 -13 2 -5 4 17 4 22 1 32 -1 23 -4z m96
-5 c-3 -4 -22 -8 -42 -7 -31 1 -33 2 -12 8 33 9 60 9 54 -1z m912 -72 c-8 -32
-24 -34 -20 -3 1 12 3 38 4 57 l2 35 10 -32 c6 -17 8 -43 4 -57z m973 62 c-2
-13 0 -29 5 -36 4 -7 5 -16 1 -20 -10 -10 -25 20 -25 51 0 15 5 27 11 27 6 0
9 -10 8 -22z m-1316 -1 c3 -7 3 -25 0 -39 l-5 -25 -24 24 c-13 13 -29 21 -35
17 -8 -4 -8 0 0 15 13 23 56 29 64 8z m1246 -48 c20 -7 31 -18 31 -30 0 -10 5
-19 10 -19 6 0 10 -6 10 -14 0 -8 6 -16 13 -19 11 -4 11 -27 0 -128 -7 -68
-17 -131 -22 -140 -5 -9 -13 -34 -17 -55 -7 -40 -27 -66 -58 -78 -12 -4 -17
-13 -13 -26 3 -10 0 -21 -7 -24 -6 -2 -2 -5 9 -6 17 -1 16 -3 -7 -16 -31 -16
-31 -16 -22 -38 9 -24 44 -20 44 4 0 26 16 26 23 0 6 -23 -21 -34 -69 -28 -23
2 -29 8 -27 25 2 18 -4 15 -37 -20 l-40 -42 -20 24 c-22 26 -25 52 -10 82 8
14 7 25 -5 43 -16 24 -6 44 15 31 13 -8 13 -4 -1 50 -6 25 -8 65 -4 91 6 43 8
45 24 30 22 -20 31 -20 31 -1 0 8 -3 15 -8 15 -4 0 -13 9 -20 21 -11 18 -11
23 3 33 9 6 15 18 13 26 -2 8 2 14 9 15 20 0 24 12 26 74 2 50 6 63 24 76 12
8 27 32 34 52 10 32 13 35 24 20 7 -10 26 -22 44 -28z m-1331 -27 c10 2 17 -3
16 -9 -1 -7 -2 -31 -2 -54 -2 -43 -22 -46 -22 -3 0 13 -6 24 -12 24 -9 0 -13
17 -14 48 -2 42 -1 44 8 19 6 -17 16 -26 26 -25z m302 33 c0 -8 -4 -15 -10
-15 -5 0 -10 7 -10 15 0 8 5 15 10 15 6 0 10 -7 10 -15z m-130 -5 c0 -5 -7
-10 -15 -10 -8 0 -15 5 -15 10 0 6 7 10 15 10 8 0 15 -4 15 -10z m-290 -30 c0
-5 -4 -10 -9 -10 -6 0 -13 5 -16 10 -3 6 1 10 9 10 9 0 16 -4 16 -10z m-802
-39 c3 -10 0 -12 -12 -8 -10 4 -15 3 -11 -4 4 -5 16 -7 28 -4 19 5 20 4 6 -6
-15 -11 -14 -15 10 -35 l26 -24 -22 -6 c-13 -3 -23 -11 -23 -17 0 -10 -29 -36
-42 -37 -3 0 -15 15 -27 33 -16 27 -19 45 -12 75 1 2 6 0 11 -3 8 -5 8 -11 1
-19 -7 -9 -2 -15 19 -23 37 -14 38 -4 5 45 -14 20 -25 39 -25 42 0 13 64 4 68
-9z m983 -4 c-13 -13 -26 -3 -16 12 3 6 11 8 17 5 6 -4 6 -10 -1 -17z m-1201
-17 c0 -5 -2 -10 -4 -10 -3 0 -8 5 -11 10 -3 6 -1 10 4 10 6 0 11 -4 11 -10z
m1252 -22 c-15 -15 -26 -4 -18 18 5 13 9 15 18 6 9 -9 9 -15 0 -24z m-1278
-24 c21 -20 20 -27 -4 -42 -19 -11 -20 -10 -20 23 0 40 2 41 24 19z m54 -28
c3 -27 -43 -104 -55 -92 -3 3 -1 12 6 19 6 8 10 25 9 38 -2 18 1 23 15 21 20
-3 21 2 6 30 -9 16 -8 19 3 16 7 -3 14 -17 16 -32z m1392 24 c0 -5 -5 -10 -11
-10 -5 0 -7 5 -4 10 3 6 8 10 11 10 2 0 4 -4 4 -10z m-247 -40 c10 -16 25 -30
33 -30 20 0 18 -12 -6 -38 -30 -32 -40 -27 -40 21 0 31 -3 38 -10 27 -7 -11
-10 -7 -10 18 0 40 10 41 33 2z m-1078 -13 c-2 -17 2 -23 19 -23 11 0 24 4 27
9 4 5 18 1 33 -8 l27 -18 -23 -12 c-18 -9 -26 -9 -39 2 -19 16 -39 17 -39 3 0
-6 10 -24 21 -40 19 -24 24 -27 41 -17 22 14 38 -3 38 -40 0 -26 -12 -30 -30
-8 -7 8 -18 15 -24 15 -6 0 3 -13 20 -29 17 -15 31 -34 31 -42 0 -8 2 -21 4
-29 3 -9 -5 -16 -18 -18 -24 -3 -28 7 -24 55 1 13 -7 26 -19 33 -14 8 -20 8
-20 0 0 -6 -5 -8 -10 -5 -6 4 -8 10 -5 15 3 4 -1 11 -7 14 -10 5 -10 7 0 12
16 8 15 33 -2 53 -19 22 -28 101 -11 101 7 0 11 -10 10 -23z m1388 -7 c-3 -11
-9 -17 -14 -15 -10 7 -1 35 11 35 5 0 6 -9 3 -20z m91 -13 c9 -15 7 -21 -9
-32 -11 -8 -26 -19 -33 -26 -10 -8 -17 -8 -24 -1 -7 7 -4 19 11 37 11 15 18
32 15 37 -4 6 2 8 11 6 10 -1 23 -11 29 -21z m-1184 5 c0 -10 -22 -32 -32 -32
-4 0 -8 9 -8 20 0 13 7 20 20 20 11 0 20 -4 20 -8z m490 -12 c0 -5 -4 -10 -10
-10 -5 0 -10 5 -10 10 0 6 5 10 10 10 6 0 10 -4 10 -10z m-800 -62 c0 -5 -9
-6 -21 -3 -14 5 -25 1 -33 -11 -12 -16 -13 -15 -13 11 0 44 16 55 44 31 13
-11 23 -24 23 -28z m620 32 c0 -5 -5 -10 -11 -10 -5 0 -7 5 -4 10 3 6 8 10 11
10 2 0 4 -4 4 -10z m429 -3 c-2 -1 -13 -9 -24 -17 -19 -14 -19 -14 -6 3 7 9
18 17 24 17 6 0 8 -1 6 -3z m-417 -53 c9 -20 9 -30 0 -45 -7 -10 -12 -26 -12
-34 0 -8 -4 -15 -10 -15 -5 0 -10 9 -10 21 0 11 -5 29 -10 40 -8 13 -7 25 0
39 14 27 28 25 42 -6z m847 -30 c-6 -8 -17 -13 -23 -11 -6 2 -23 -2 -38 -10
-25 -12 -28 -12 -28 2 0 8 4 15 9 15 4 0 26 14 47 31 38 30 39 30 42 9 2 -11
-2 -28 -9 -36z m-1609 42 c0 -3 -4 -8 -10 -11 -5 -3 -10 -1 -10 4 0 6 5 11 10
11 6 0 10 -2 10 -4z m2935 -46 c7 -12 -2 -12 -30 0 -19 8 -19 9 2 9 12 1 25
-3 28 -9z m-2445 -15 c0 -8 -6 -15 -14 -15 -17 0 -28 14 -19 24 12 12 33 6 33
-9z m1090 -41 c0 -18 -23 -43 -45 -48 -44 -11 -49 5 -9 29 41 24 54 29 54 19z
m-1490 -34 c0 -5 -4 -10 -10 -10 -5 0 -10 5 -10 10 0 6 5 10 10 10 6 0 10 -4
10 -10z m542 -32 c-7 -7 -12 -8 -12 -2 0 14 12 26 19 19 2 -3 -1 -11 -7 -17z
m56 -56 c3 -21 0 -22 -42 -19 -27 3 -47 0 -50 -7 -3 -6 -5 -2 -3 9 5 42 90 58
95 17z m-318 -12 c0 -5 -7 -10 -15 -10 -8 0 -15 5 -15 10 0 6 7 10 15 10 8 0
15 -4 15 -10z m2120 -138 c0 -26 -2 -28 -32 -24 -18 3 -42 11 -53 19 -19 14
-18 15 12 10 21 -4 35 -1 43 8 19 23 30 18 30 -13z"/>
<path d="M2163 2688 c-61 -53 -93 -89 -93 -106 0 -8 11 -34 25 -58 22 -37 31
-44 68 -49 71 -11 145 33 151 89 1 14 6 29 9 33 13 12 7 38 -11 54 -15 13 -26
14 -72 3 -30 -7 -56 -11 -58 -9 -2 2 3 13 10 24 8 13 28 24 50 28 45 7 40 23
-7 23 -24 0 -45 -10 -72 -32z m82 -76 c-11 -2 -29 -11 -39 -21 -16 -13 -18
-13 -14 -1 6 19 49 41 62 32 6 -4 2 -8 -9 -10z"/>
<path d="M1986 2543 c-12 -12 -6 -33 9 -33 8 0 15 6 15 14 0 17 -14 28 -24 19z"/>
<path d="M3660 930 c0 -5 7 -10 15 -10 8 0 15 5 15 10 0 6 -7 10 -15 10 -8 0
-15 -4 -15 -10z"/>
<path d="M4737 354 c-8 -8 1 -24 14 -24 5 0 9 7 9 15 0 15 -12 20 -23 9z"/>
<path d="M2525 430 c3 -5 8 -10 11 -10 2 0 4 5 4 10 0 6 -5 10 -11 10 -5 0 -7
-4 -4 -10z"/>
<path d="M4248 2953 c7 -3 16 -2 19 1 4 3 -2 6 -13 5 -11 0 -14 -3 -6 -6z"/>
<path d="M4370 2941 c-13 -25 -13 -41 0 -21 8 13 10 13 10 -2 0 -9 -6 -23 -13
-30 -24 -24 -38 -58 -32 -78 3 -10 1 -21 -5 -25 -5 -3 -10 -22 -10 -42 0 -35
1 -33 34 33 19 38 38 83 42 99 4 17 13 42 21 58 13 26 12 27 -11 27 -15 0 -30
-8 -36 -19z"/>
<path d="M4680 2932 c28 -38 50 -133 45 -191 l-5 -46 10 40 c6 22 9 80 7 130
l-3 90 -38 3 -38 3 22 -29z"/>
<path d="M4527 2861 c7 -26 46 -29 41 -3 -2 9 -13 18 -25 20 -17 3 -20 -1 -16
-17z"/>
<path d="M4630 2825 c0 -24 1 -24 19 -8 21 18 19 33 -5 33 -8 0 -14 -10 -14
-25z"/>
<path d="M4762 2820 c0 -14 2 -19 5 -12 2 6 2 18 0 25 -3 6 -5 1 -5 -13z"/>
<path d="M4487 2823 c-48 -5 -38 -23 14 -23 28 0 39 4 39 15 0 8 -3 14 -7 13
-5 -1 -25 -3 -46 -5z"/>
<path d="M4640 2770 c0 -12 40 -33 48 -25 4 4 -2 13 -12 21 -23 16 -36 18 -36
4z"/>
<path d="M4567 2753 c-12 -11 -8 -23 7 -23 8 0 16 7 20 15 5 15 -14 21 -27 8z"/>
<path d="M4610 2735 c0 -8 5 -15 10 -15 6 0 10 7 10 15 0 8 -4 15 -10 15 -5 0
-10 -7 -10 -15z"/>
<path d="M916 2714 c-24 -23 -19 -42 11 -46 21 -2 29 -10 35 -35 8 -31 26 -42
41 -26 4 3 39 5 79 4 79 -3 86 5 17 18 -25 4 -43 12 -41 19 1 7 -4 12 -10 12
-7 0 -31 16 -52 35 -44 39 -57 42 -80 19z"/>
<path d="M4533 2646 c-23 -20 -26 -27 -15 -37 15 -16 83 -37 100 -31 15 5 15
33 0 67 -15 32 -48 33 -85 1z"/>
<path d="M4320 2572 c0 -36 4 -52 16 -56 13 -5 15 3 12 46 -4 70 -28 78 -28
10z"/>
<path d="M4061 2584 c0 -11 3 -14 6 -6 3 7 2 16 -1 19 -3 4 -6 -2 -5 -13z"/>
<path d="M4707 2586 c-4 -10 -7 -25 -6 -34 0 -11 4 -9 10 7 5 13 8 29 6 35 -2
5 -6 2 -10 -8z"/>
<path d="M4560 2540 c0 -5 9 -10 20 -10 11 0 20 5 20 10 0 6 -9 10 -20 10 -11
0 -20 -4 -20 -10z"/>
<path d="M921 2473 c-1 -23 4 -45 9 -48 12 -8 12 42 0 70 -7 16 -9 11 -9 -22z"/>
<path d="M4399 2458 c11 -18 31 -53 43 -77 l23 -43 45 7 c96 15 176 25 192 26
15 0 14 6 -9 41 -30 44 -26 45 -76 -23 -17 -23 -18 -23 -14 -2 5 24 -15 35
-95 53 -26 5 -62 19 -80 30 -46 28 -53 25 -29 -12z"/>
<path d="M1058 2443 c6 -2 18 -2 25 0 6 3 1 5 -13 5 -14 0 -19 -2 -12 -5z"/>
<path d="M902 2267 c2 -80 6 -148 10 -152 3 -3 19 -8 35 -10 27 -3 29 -2 25
26 -2 16 -2 29 1 29 3 0 36 -20 73 -45 71 -48 83 -52 102 -33 18 18 15 28 -8
28 -11 0 -46 12 -78 26 -81 36 -110 86 -130 223 -4 25 -13 46 -20 49 -9 3 -12
-28 -10 -141z"/>
<path d="M1038 2399 c-10 -5 -18 -14 -18 -19 0 -14 40 -6 49 9 4 6 16 9 27 5
16 -5 16 -4 4 5 -19 13 -40 13 -62 0z"/>
<path d="M4321 2353 c-1 -17 4 -35 10 -38 16 -10 16 -3 3 35 l-13 35 0 -32z"/>
<path d="M2 2319 c3 -8 18 -15 34 -17 88 -7 107 -6 111 6 4 9 -12 12 -55 12
-33 0 -68 3 -78 7 -12 4 -15 2 -12 -8z"/>
<path d="M1155 2290 c-3 -5 1 -10 9 -10 9 0 16 5 16 10 0 6 -4 10 -9 10 -6 0
-13 -4 -16 -10z"/>
<path d="M4060 2286 c0 -8 5 -18 10 -21 6 -3 10 3 10 14 0 12 -4 21 -10 21 -5
0 -10 -6 -10 -14z"/>
<path d="M4042 2270 c0 -14 2 -19 5 -12 2 6 2 18 0 25 -3 6 -5 1 -5 -13z"/>
<path d="M727 2261 c-2 -10 -1 -25 4 -32 6 -10 9 -4 9 19 0 36 -5 42 -13 13z"/>
<path d="M1150 2240 c-8 -5 -27 -10 -42 -10 -16 0 -28 -4 -28 -10 0 -15 37
-12 70 5 29 15 38 25 23 25 -5 0 -15 -5 -23 -10z"/>
<path d="M5115 2241 c-14 -6 -5 -9 35 -14 86 -11 110 -9 110 8 0 12 -13 15
-62 14 -35 0 -72 -4 -83 -8z"/>
<path d="M3570 2221 l-35 -7 32 -8 c18 -4 37 -5 43 -1 12 7 14 26 3 24 -5 -1
-24 -5 -43 -8z"/>
<path d="M3630 2226 c0 -2 7 -6 15 -10 8 -3 15 -1 15 4 0 6 -7 10 -15 10 -8 0
-15 -2 -15 -4z"/>
<path d="M866 2165 c-16 -44 2 -125 29 -125 10 0 -1 104 -13 126 -8 15 -9 15
-16 -1z"/>
<path d="M5063 2147 c-5 -9 127 0 137 10 2 2 -26 3 -63 2 -37 -1 -70 -6 -74
-12z"/>
<path d="M5225 2150 c-3 -5 3 -10 14 -10 12 0 21 5 21 10 0 6 -6 10 -14 10 -8
0 -18 -4 -21 -10z"/>
<path d="M730 2125 c-1 -16 -3 -45 -6 -62 -2 -18 1 -33 6 -33 6 0 10 8 11 18
0 9 3 29 5 45 3 15 0 35 -5 45 -9 14 -11 12 -11 -13z"/>
<path d="M797 2093 c4 -16 7 -38 8 -50 0 -13 5 -23 10 -22 16 1 51 18 39 18
-6 1 -20 19 -33 41 -26 47 -34 51 -24 13z"/>
<path d="M5111 2076 c2 -2 38 -6 79 -9 56 -4 65 -3 35 3 -40 9 -122 13 -114 6z"/>
<path d="M1156 2048 c-20 -29 -20 -35 2 -59 18 -19 19 -18 21 31 1 27 -1 50
-3 50 -3 0 -12 -10 -20 -22z"/>
<path d="M5181 1986 c10 -9 79 -14 79 -5 0 5 -19 9 -42 9 -23 0 -39 -2 -37 -4z"/>
<path d="M3020 1941 c-14 -5 -41 -10 -60 -11 l-35 -2 30 -11 c17 -7 44 -20 62
-30 45 -24 53 -21 18 8 -16 14 -25 25 -20 25 21 0 112 -54 162 -96 48 -42 71
-55 59 -35 -3 5 2 8 11 7 9 0 18 4 20 10 2 7 -7 10 -27 8 -32 -4 -37 11 -10
33 21 17 35 16 21 -1 -10 -12 -8 -13 8 -9 15 4 21 1 21 -10 0 -8 3 -23 7 -33
4 -11 3 -15 -5 -10 -6 3 -13 2 -17 -4 -4 -6 -11 -8 -16 -5 -5 4 -9 3 -9 0 0
-10 174 -175 179 -170 2 3 -3 13 -11 22 -9 10 -19 29 -23 43 -16 52 -74 156
-106 188 -37 37 -83 65 -93 55 -3 -4 -12 2 -20 12 -15 21 -103 30 -146 16z
m85 -30 c3 -5 25 -8 48 -7 45 3 95 -23 82 -44 -9 -15 -31 -12 -45 5 -7 8 -20
15 -29 15 -23 1 -100 38 -79 39 9 1 19 -3 23 -8z m96 -72 c5 -11 8 -19 6 -19
-7 0 -47 37 -47 43 0 13 31 -6 41 -24z m129 -120 c0 -6 -4 -7 -10 -4 -5 3 -10
11 -10 16 0 6 5 7 10 4 6 -3 10 -11 10 -16z"/>
<path d="M5234 1904 c-6 -3 -40 -11 -75 -18 -59 -12 -64 -15 -61 -37 2 -13 8
-28 14 -34 7 -7 9 -1 6 18 -6 29 5 35 27 13 11 -10 25 -11 64 -3 54 10 69 27
25 27 -14 0 -22 -4 -19 -10 4 -6 -6 -8 -25 -6 -50 6 -45 13 14 26 31 6 56 16
56 21 0 9 -8 10 -26 3z"/>
<path d="M3085 1855 c133 -105 235 -204 235 -229 0 -7 11 -19 25 -26 14 -7 25
-16 25 -20 0 -11 79 -44 87 -36 4 3 -4 14 -18 23 -13 10 -53 44 -89 78 -104
95 -229 199 -258 213 -25 12 -26 12 -7 -3z"/>
<path d="M5205 1798 c6 -29 3 -36 -17 -45 -15 -8 -18 -12 -7 -12 19 -1 59 35
59 54 0 8 -9 19 -21 25 -19 11 -20 9 -14 -22z"/>
<path d="M5144 1799 c-9 -15 13 -28 37 -22 23 6 25 19 3 27 -23 9 -32 7 -40
-5z"/>
<path d="M5140 1739 c7 -11 14 -19 16 -16 7 7 -7 37 -17 37 -6 0 -5 -9 1 -21z"/>
<path d="M2740 1730 c20 -13 33 -13 25 0 -3 6 -14 10 -23 10 -15 0 -15 -2 -2
-10z"/>
<path d="M5230 1725 c-7 -8 -17 -15 -22 -15 -12 0 -38 -26 -38 -37 0 -5 20
-29 45 -53 l45 -44 0 82 c0 82 -6 96 -30 67z"/>
<path d="M927 1723 c-3 -4 0 -34 6 -66 15 -84 -3 -309 -27 -336 -14 -15 -19
-43 -23 -119 -6 -99 -5 -100 18 -107 13 -5 40 -18 59 -30 19 -11 60 -31 90
-44 30 -12 63 -32 73 -43 18 -22 25 -104 7 -93 -6 4 -8 11 -4 16 3 6 -12 1
-35 -10 -43 -23 -66 -27 -56 -11 3 6 1 10 -5 10 -7 0 -23 9 -37 20 -36 28 -89
27 -104 -2 -7 -13 -20 -29 -31 -36 -25 -18 -23 -32 5 -30 13 1 50 -17 89 -45
36 -26 88 -57 114 -69 27 -11 61 -30 76 -41 15 -11 30 -19 32 -16 3 3 6 42 7
87 3 74 11 102 21 70 5 -13 108 77 108 93 0 5 -29 9 -64 9 -73 0 -76 3 -76 98
0 29 -4 51 -8 48 -5 -3 -24 5 -43 18 -19 12 -48 28 -66 35 -17 7 -34 19 -37
27 -11 30 -29 14 -23 -21 7 -42 -7 -46 -22 -7 -6 15 -16 34 -22 42 -9 12 -5
31 16 84 26 65 26 71 16 149 -6 45 -15 133 -21 196 -9 105 -20 146 -33 124z"/>
<path d="M2785 1710 c3 -5 8 -10 11 -10 2 0 4 5 4 10 0 6 -5 10 -11 10 -5 0
-7 -4 -4 -10z"/>
<path d="M2557 1696 c-111 -40 -180 -167 -147 -272 40 -128 163 -198 288 -165
49 14 113 67 138 114 27 54 30 145 6 198 -51 112 -172 165 -285 125z m108
-163 c52 -26 95 -51 95 -55 0 -10 -192 -108 -202 -102 -12 7 -10 204 2 204 5
0 53 -21 105 -47z"/>
<path d="M2376 1595 c-9 -26 -7 -32 5 -12 6 10 9 21 6 23 -2 3 -7 -2 -11 -11z"/>
<path d="M1462 1540 c0 -14 2 -19 5 -12 2 6 2 18 0 25 -3 6 -5 1 -5 -13z"/>
<path d="M1473 1455 c0 -22 2 -30 4 -17 2 12 2 30 0 40 -3 9 -5 -1 -4 -23z"/>
<path d="M2865 1343 c-27 -53 -30 -61 -10 -35 9 12 21 20 26 17 5 -4 9 8 9 24
0 17 -1 31 -3 31 -2 0 -12 -17 -22 -37z"/>
<path d="M3070 1321 c0 -8 112 -81 125 -81 14 0 -17 29 -64 59 -50 33 -61 36
-61 22z"/>
<path d="M39 1293 c-1 -5 0 -22 1 -40 1 -17 -8 -52 -19 -76 -13 -28 -21 -67
-21 -97 l0 -52 68 62 c60 56 102 103 74 86 -13 -8 -65 61 -59 79 3 7 -2 20
-12 29 -19 17 -30 20 -32 9z"/>
<path d="M3801 1248 c0 -28 2 -30 9 -13 12 28 12 45 0 45 -5 0 -10 -15 -9 -32z"/>
<path d="M3820 1169 c0 -6 8 -13 19 -16 13 -3 17 -11 13 -26 -8 -34 -24 -38
-50 -14 -17 16 -25 18 -31 9 -4 -7 -15 -10 -25 -6 -14 6 -16 2 -10 -22 4 -16
14 -39 22 -52 21 -32 36 -12 18 23 -18 34 -12 47 8 20 7 -10 18 -15 24 -11 6
3 13 2 17 -4 4 -6 11 -8 16 -5 5 4 9 2 9 -4 0 -5 -4 -13 -10 -16 -18 -11 -10
-26 12 -23 22 3 38 48 17 48 -8 0 -9 13 -5 41 4 26 2 46 -5 55 -14 17 -39 19
-39 3z"/>
<path d="M162 967 c-14 -17 -89 -40 -102 -32 -6 3 -10 -3 -10 -14 0 -12 5 -21
10 -21 6 0 10 4 10 10 0 5 20 15 45 21 42 11 74 33 63 44 -3 3 -10 -1 -16 -8z"/>
<path d="M573 963 c9 -2 23 -2 30 0 6 3 -1 5 -18 5 -16 0 -22 -2 -12 -5z"/>
<path d="M4780 950 c-13 -8 -13 -10 2 -10 9 0 20 5 23 10 8 13 -5 13 -25 0z"/>
<path d="M271 903 c-12 -26 -32 -70 -45 -96 l-24 -48 24 -16 c25 -16 49 -51
41 -59 -2 -3 -29 6 -58 19 -30 13 -63 27 -74 31 -31 10 20 -28 73 -54 24 -12
41 -24 38 -27 -6 -6 -100 24 -148 48 -21 11 -43 19 -50 19 -7 0 33 -26 90 -56
59 -32 102 -62 102 -70 0 -20 -21 -13 -142 47 -108 53 -131 53 -38 0 33 -19
58 -36 56 -38 -2 -2 -24 6 -50 17 -26 11 -52 20 -57 20 -5 0 -9 -29 -9 -65 0
-68 12 -85 58 -85 13 0 19 -6 18 -17 -1 -12 9 -19 28 -23 25 -4 29 -10 32 -44
2 -22 8 -44 14 -50 13 -13 13 -46 0 -46 -5 0 -10 -19 -10 -42 -1 -69 -19 -97
-80 -126 l-55 -27 -3 -58 -3 -57 306 0 306 0 -8 23 c-4 12 -7 48 -6 81 l2 59
-22 -22 c-13 -12 -43 -24 -69 -27 -38 -5 -46 -3 -52 12 -6 16 -9 16 -17 4 -7
-12 -9 -11 -7 5 2 11 -1 45 -5 77 -8 52 -6 60 22 110 17 30 31 63 32 74 0 10
3 14 5 7 6 -13 32 -6 52 14 8 8 23 11 39 7 15 -4 24 -3 20 2 -3 6 36 11 93 12
85 3 104 0 141 -19 23 -11 51 -31 61 -43 39 -46 68 -155 83 -308 l7 -68 99 0
99 0 0 165 c0 149 -2 166 -17 171 -22 7 -87 32 -128 49 -91 39 -110 45 -122
41 -7 -3 -34 1 -60 9 -26 7 -75 18 -107 24 -33 6 -67 18 -76 26 -9 8 -21 15
-26 15 -6 0 -23 14 -39 30 -16 17 -36 30 -46 30 -9 0 -22 7 -29 15 -7 8 -21
15 -31 15 -10 0 -20 4 -23 9 -6 9 -144 47 -158 43 -13 -3 -51 95 -56 143 -3
35 2 66 17 104 26 69 20 78 -8 14z m881 -780 c-2 -35 -8 -63 -11 -63 -4 0 -17
17 -29 38 -22 39 -16 62 14 62 6 0 15 7 18 16 11 28 13 12 8 -53z"/>
<path d="M2460 929 c0 -5 5 -7 10 -4 6 3 10 8 10 11 0 2 -4 4 -10 4 -5 0 -10
-5 -10 -11z"/>
<path d="M5180 930 c0 -5 11 -10 25 -10 14 0 25 5 25 10 0 6 -11 10 -25 10
-14 0 -25 -4 -25 -10z"/>
<path d="M2457 880 c12 -46 62 -59 100 -26 23 20 26 27 15 38 -10 10 -15 10
-20 1 -5 -9 -19 -9 -47 -3 -54 13 -54 13 -48 -10z"/>
<path d="M537 858 c-31 -17 -55 -33 -53 -35 6 -6 103 44 111 57 9 14 7 13 -58
-22z"/>
<path d="M2736 833 c2 -21 9 -39 14 -41 14 -5 12 -22 -2 -22 -20 -1 -66 -40
-48 -40 9 0 22 6 29 13 11 10 14 9 18 -1 3 -6 9 -10 13 -7 5 3 7 12 3 20 -7
19 11 19 27 0 7 -8 19 -15 26 -15 8 0 14 -5 14 -11 0 -7 -11 -8 -30 -4 -18 4
-30 3 -30 -4 0 -6 6 -8 14 -5 7 3 16 -2 19 -10 8 -20 33 -21 44 -1 13 22 52 8
46 -16 -5 -16 0 -19 32 -19 30 0 36 3 31 16 -3 9 -6 20 -6 25 0 5 -11 9 -24 9
-14 0 -28 5 -31 10 -3 6 1 10 9 10 10 0 16 9 16 26 0 27 -13 27 -72 -1 -23
-11 -31 -10 -56 5 -16 10 -33 24 -37 30 -13 22 4 22 33 0 32 -24 45 -21 62 10
10 18 8 19 -13 11 -26 -10 -47 2 -47 26 0 7 -6 10 -14 7 -8 -3 -17 -1 -21 5
-14 23 -24 9 -19 -26z"/>
<path d="M3152 857 c-14 -17 2 -42 22 -34 20 8 20 21 2 36 -10 8 -16 8 -24 -2z"/>
<path d="M3192 808 c-8 -10 -6 -20 8 -38 20 -27 37 -22 25 7 -5 10 -9 21 -9
25 -2 15 -14 18 -24 6z"/>
<path d="M3230 795 c0 -2 10 -10 23 -16 20 -11 21 -11 8 4 -13 16 -31 23 -31
12z"/>
<path d="M5207 323 c-4 -3 -7 -11 -7 -17 0 -6 5 -5 12 2 6 6 9 14 7 17 -3 3
-9 2 -12 -2z"/>
<path d="M1543 218 c-13 -25 -23 -50 -23 -57 0 -6 -9 -30 -19 -54 -10 -23 -24
-57 -29 -74 -11 -32 -10 -33 17 -33 23 0 30 5 34 27 18 102 29 151 38 175 20
51 5 64 -18 16z"/>
</g>
</svg>
