<?xml version="1.0" standalone="no"?>
<!DOCTYPE svg PUBLIC "-//W3C//DTD SVG 20010904//EN"
 "http://www.w3.org/TR/2001/REC-SVG-20010904/DTD/svg10.dtd">
<svg version="1.0" xmlns="http://www.w3.org/2000/svg"
 width="526.000000pt" height="275.000000pt" viewBox="0 0 526.000000 275.000000"
 preserveAspectRatio="xMidYMid meet">

<g transform="translate(0.000000,275.000000) scale(0.100000,-0.100000)"
fill="#000000" stroke="none">
<path d="M444 2707 c-91 -94 -142 -194 -179 -351 -13 -56 -37 -142 -53 -191
l-28 -91 22 -17 c13 -9 26 -17 29 -17 13 0 120 -54 126 -63 11 -16 62 1 55 18
-8 22 11 18 36 -7 45 -47 71 -58 133 -58 34 0 66 5 72 11 7 7 24 8 42 4 37 -8
42 -38 9 -64 -18 -15 -19 -18 -5 -24 12 -4 29 8 58 43 22 26 55 54 72 61 17 7
39 21 49 31 10 10 22 18 27 18 6 0 7 15 4 33 -3 22 5 55 26 107 32 80 36 82
21 10 -6 -25 -12 -66 -15 -92 -4 -46 -3 -48 20 -48 14 0 25 6 25 13 3 81 34
553 44 675 3 30 0 42 -10 42 -17 0 -22 -22 -29 -150 -3 -58 -9 -121 -12 -140
-6 -32 -8 -29 -21 40 -9 41 -15 114 -15 163 1 66 -2 87 -13 87 -7 0 -16 -16
-20 -35 l-6 -35 -39 35 -39 35 -173 0 -172 -1 -41 -42z m299 -158 c-13 -13 13
-66 60 -118 48 -53 56 -70 53 -116 -3 -48 -26 -125 -37 -125 -5 0 -14 -10 -20
-22 -11 -21 -11 -22 4 -9 15 12 17 11 17 -3 0 -63 -151 -195 -225 -196 -77 -1
-149 55 -200 157 -26 50 -30 68 -28 128 1 39 4 77 6 85 2 8 7 33 12 55 11 58
54 119 101 144 35 19 50 21 101 15 38 -4 68 -2 79 5 25 14 92 15 77 0z m137
-350 c0 -11 -4 -18 -10 -14 -5 3 -7 12 -3 20 7 21 13 19 13 -6z"/>
<path d="M418 2429 c-25 -14 -23 -33 1 -19 11 5 29 10 41 10 34 0 97 -37 104
-62 l7 -23 11 22 c16 33 5 49 -48 67 -54 18 -91 20 -116 5z"/>
<path d="M433 2393 c-28 -11 -10 -21 48 -27 72 -8 82 -3 40 18 -30 16 -64 19
-88 9z"/>
<path d="M663 2378 c-4 -7 -9 -22 -10 -34 -3 -17 2 -21 24 -22 16 -1 39 -4 53
-6 73 -12 113 -15 100 -10 -8 4 -26 15 -39 25 -26 21 -71 25 -88 8 -6 -6 -17
-8 -23 -4 -19 12 2 24 52 31 38 5 52 3 78 -16 33 -23 51 -21 30 5 -26 31 -160
48 -177 23z"/>
<path d="M550 2201 c0 -5 5 -13 10 -16 6 -3 10 -2 10 4 0 5 -4 13 -10 16 -5 3
-10 2 -10 -4z"/>
<path d="M625 2190 c-3 -5 -1 -10 4 -10 6 0 11 5 11 10 0 6 -2 10 -4 10 -3 0
-8 -4 -11 -10z"/>
<path d="M463 2166 c10 -8 27 -11 38 -9 27 7 5 23 -31 23 -23 -1 -24 -2 -7
-14z"/>
<path d="M666 2131 c18 -12 39 -19 48 -15 26 10 18 24 -13 24 -16 0 -38 3 -48
6 -10 3 -4 -4 13 -15z"/>
<path d="M658 2103 c7 -3 16 -2 19 1 4 3 -2 6 -13 5 -11 0 -14 -3 -6 -6z"/>
<path d="M1156 2548 c-7 -231 -30 -549 -42 -588 -3 -8 -7 -77 -10 -155 -3 -77
-9 -173 -15 -214 -11 -72 -10 -74 15 -99 30 -30 27 -35 55 103 69 346 81 404
92 445 14 57 23 323 10 295 -5 -11 -10 -38 -11 -60 -1 -69 -49 -255 -65 -255
-8 0 3 582 11 668 6 57 5 62 -13 62 -19 0 -20 -9 -27 -202z"/>
<path d="M2386 2707 c-29 -49 -52 -141 -60 -247 -4 -41 -14 -116 -22 -167 -16
-89 -15 -93 5 -152 12 -34 21 -68 21 -76 0 -17 35 -51 74 -72 24 -12 33 -13
53 -2 34 18 54 -2 33 -35 -8 -13 -28 -46 -45 -73 -16 -26 -70 -106 -119 -178
-50 -71 -108 -157 -131 -190 l-40 -60 0 -115 c0 -115 0 -115 40 -190 22 -41
38 -83 37 -93 -4 -22 24 -223 44 -322 8 -38 17 -125 21 -192 6 -114 8 -124 30
-138 25 -17 32 -41 9 -32 -26 10 -26 -5 -1 -35 28 -33 33 -68 10 -68 -8 0 -12
-6 -9 -14 4 -9 -5 -16 -28 -20 -18 -3 -50 -15 -71 -26 -46 -25 -47 -25 -47 0
0 27 -16 26 -23 -2 -10 -39 -34 -2 -48 72 -9 50 -9 73 -1 82 8 10 4 40 -13
113 -14 55 -25 108 -25 118 0 39 -21 11 -78 -106 -60 -121 -202 -457 -202
-477 0 -7 74 -10 221 -10 250 0 230 -9 188 87 -21 48 -21 53 -6 76 20 31 79
59 115 55 21 -2 30 -11 38 -36 13 -41 34 -61 107 -101 49 -27 57 -29 57 -13 0
9 30 71 66 136 36 65 93 182 126 260 89 208 151 324 289 532 60 91 74 124 61
142 -7 9 -22 37 -34 61 l-21 45 -28 -55 c-31 -63 -92 -122 -153 -150 -31 -14
-65 -19 -137 -19 -82 0 -102 3 -147 26 -65 32 -137 111 -159 176 -14 39 -26
54 -53 68 -64 33 -84 63 -82 125 2 64 28 122 97 210 25 33 73 105 106 161 33
55 70 113 83 129 l23 28 38 -26 c49 -33 61 -25 17 11 l-33 27 24 23 c13 12 28
22 35 22 30 0 16 24 -54 91 -98 96 -134 158 -134 233 0 43 4 56 15 56 9 0 12
6 9 15 -7 17 11 21 21 5 10 -15 35 -12 35 5 0 9 -9 15 -21 15 -17 0 -19 3 -10
13 15 19 4 27 -35 27 -31 0 -33 2 -29 28 2 15 7 43 10 63 4 29 11 38 31 43 14
4 33 20 42 36 12 20 28 32 50 36 18 3 35 10 38 15 3 5 15 9 28 9 12 0 37 11
56 25 38 28 40 29 40 16 0 -5 -22 -23 -50 -41 -27 -18 -50 -35 -50 -39 0 -16
62 -51 107 -62 84 -19 115 -41 146 -102 23 -45 26 -59 17 -82 -8 -22 -6 -33
10 -60 29 -46 23 -98 -18 -172 -17 -31 -9 -29 33 8 20 18 38 29 41 27 2 -3 7
-43 11 -89 3 -46 10 -92 15 -101 4 -10 30 -30 56 -44 26 -15 49 -29 51 -30 2
-2 -13 -25 -33 -52 -20 -27 -36 -54 -36 -60 0 -9 -43 -122 -92 -242 -9 -22 -6
-32 23 -73 37 -53 49 -58 49 -23 0 28 38 177 74 291 34 107 58 126 159 127 48
1 86 -5 116 -17 37 -15 47 -26 67 -72 27 -61 30 -118 10 -189 -14 -49 -24
-107 -32 -189 -3 -36 0 -45 12 -45 19 0 49 -28 68 -65 15 -28 16 -29 16 -6 0
13 -16 50 -36 82 -35 58 -39 99 -11 99 29 0 81 -48 93 -86 l12 -39 1 33 c1 38
17 35 32 -6 8 -21 12 -23 19 -12 22 36 20 -7 -20 -395 -5 -55 -14 -154 -20
-220 -5 -66 -14 -175 -20 -242 -5 -67 -10 -163 -11 -212 -1 -50 -5 -94 -10
-97 -5 -3 -9 -24 -8 -47 1 -39 2 -37 20 33 11 41 22 93 24 115 3 22 9 81 14
130 10 91 31 264 77 610 37 282 53 481 98 1175 30 454 31 500 13 500 -9 0 -19
-10 -21 -22 -9 -38 -87 -946 -101 -1158 -3 -52 -9 -108 -12 -124 l-5 -29 -48
51 c-65 69 -106 178 -96 258 9 75 -10 111 -98 186 -93 79 -112 101 -148 172
-36 71 -48 110 -87 281 -17 72 -41 154 -55 182 -14 29 -26 59 -26 67 0 8 -12
42 -26 75 l-27 61 -303 0 -303 0 -25 -43z m638 -289 c5 -21 3 -28 -9 -28 -8 0
-15 -7 -15 -15 0 -8 -7 -15 -15 -15 -10 0 -15 10 -15 30 0 18 5 29 12 28 7 -2
14 8 16 21 4 28 17 17 26 -21z m-544 17 c0 -10 -45 -23 -55 -17 -5 3 1 9 15
13 33 9 40 10 40 4z"/>
<path d="M4096 2719 c-19 -32 -21 -65 -13 -220 5 -97 24 -144 65 -162 65 -29
121 -69 115 -83 -10 -26 7 -63 45 -98 57 -53 113 -165 122 -245 6 -47 21 -95
54 -165 26 -54 49 -97 51 -94 3 2 -16 51 -40 107 -62 142 -60 170 14 296 26
45 33 51 70 55 l41 5 -25 37 c-17 25 -25 51 -25 78 0 30 -3 39 -12 34 -10 -6
-10 -4 0 7 31 34 -8 64 -97 72 -29 3 -56 9 -60 14 -3 5 -14 12 -23 16 -9 3
-20 22 -24 42 -3 20 -17 49 -30 64 -12 15 -26 39 -29 54 -6 23 -1 30 39 58
l46 33 0 63 0 63 -133 0 -133 0 -18 -31z m252 -31 c2 -12 -3 -18 -17 -18 -11
0 -28 -11 -39 -25 -21 -27 -32 -23 -32 11 0 44 80 73 88 32z"/>
<path d="M4487 2743 c-27 -26 27 -36 66 -12 l32 19 -46 0 c-25 0 -49 -3 -52
-7z"/>
<path d="M4668 2716 c17 -19 33 -45 37 -58 12 -45 40 -103 58 -120 23 -24 22
-38 -4 -38 -23 0 -25 17 17 -184 36 -168 47 -182 146 -188 40 -2 89 -11 108
-20 28 -13 142 -38 173 -38 22 0 1 46 -37 82 -25 23 -43 45 -40 50 3 4 -15 17
-41 28 -51 22 -82 53 -122 120 -15 25 -63 97 -107 160 -45 63 -94 143 -111
178 -28 61 -30 62 -68 62 l-39 0 30 -34z"/>
<path d="M4450 2700 c0 -5 5 -10 11 -10 5 0 7 5 4 10 -3 6 -8 10 -11 10 -2 0
-4 -4 -4 -10z"/>
<path d="M4406 2683 c-9 -9 -7 -33 3 -33 12 0 22 28 12 34 -5 3 -11 3 -15 -1z"/>
<path d="M4498 2570 c-43 -23 -54 -38 -40 -52 8 -8 23 -4 52 11 22 11 47 21
55 21 18 0 19 12 3 28 -16 16 -26 15 -70 -8z"/>
<path d="M2755 2510 c3 -5 16 -10 28 -9 21 0 21 1 2 9 -28 12 -37 12 -30 0z"/>
<path d="M2624 2485 c-16 -12 -16 -14 -3 -15 9 0 22 7 29 15 16 19 0 19 -26 0z"/>
<path d="M2698 2472 c-26 -5 -22 -21 6 -28 31 -7 58 -2 63 12 4 12 -40 22 -69
16z"/>
<path d="M3820 2408 c-1 -4 -17 -257 -34 -525 -9 -127 -18 -294 -22 -370 -16
-354 -66 -1086 -89 -1302 -22 -206 -21 -211 14 -211 l29 0 6 83 c4 45 15 255
26 467 11 212 25 471 30 575 38 682 59 1285 47 1285 -4 0 -7 -1 -7 -2z"/>
<path d="M5210 2131 c0 -5 6 -14 14 -20 12 -10 13 -8 9 8 -5 21 -23 30 -23 12z"/>
<path d="M4116 2035 c-3 -8 -1 -15 4 -15 6 0 10 7 10 15 0 8 -2 15 -4 15 -2 0
-6 -7 -10 -15z"/>
<path d="M705 1921 c-3 -5 -1 -12 5 -16 5 -3 10 1 10 9 0 18 -6 21 -15 7z"/>
<path d="M1241 1798 c-26 -148 -68 -319 -80 -331 -11 -11 39 -105 63 -119 13
-7 16 -4 16 17 0 14 4 24 9 21 4 -3 11 18 15 47 9 75 7 437 -2 437 -4 0 -14
-33 -21 -72z"/>
<path d="M4170 1690 c0 -11 5 -20 10 -20 6 0 10 9 10 20 0 11 -4 20 -10 20 -5
0 -10 -9 -10 -20z"/>
<path d="M115 1658 c-6 -18 -41 -143 -58 -208 -40 -146 -50 -212 -53 -350 -4
-139 -3 -143 11 -105 9 22 20 87 26 145 15 160 27 230 39 230 5 0 11 -8 13
-17 3 -10 5 5 6 34 0 28 -4 55 -9 58 -24 15 26 155 55 155 19 0 19 4 0 40 -17
33 -23 37 -30 18z"/>
<path d="M5040 1641 c0 -5 -8 -12 -17 -15 -10 -2 0 -2 22 1 51 7 70 23 27 23
-18 0 -32 -4 -32 -9z"/>
<path d="M4550 1630 c0 -5 5 -10 11 -10 5 0 7 5 4 10 -3 6 -8 10 -11 10 -2 0
-4 -4 -4 -10z"/>
<path d="M2610 1611 c-73 -23 -145 -85 -176 -150 -28 -56 -31 -177 -6 -233 47
-106 140 -168 258 -170 114 -2 200 51 263 162 8 14 16 59 19 101 4 67 1 84
-21 130 -48 104 -134 162 -247 166 -36 1 -76 -1 -90 -6z m237 -278 c4 -10
-243 -133 -251 -125 -8 7 -8 247 -1 254 7 7 248 -117 252 -129z"/>
<path d="M4210 1618 c0 -17 56 -115 72 -127 11 -7 26 -28 34 -45 7 -17 13 -24
13 -16 1 8 -10 33 -24 55 -13 22 -33 56 -44 76 -17 31 -51 69 -51 57z"/>
<path d="M4878 1613 c7 -3 16 -2 19 1 4 3 -2 6 -13 5 -11 0 -14 -3 -6 -6z"/>
<path d="M3092 1500 c0 -19 2 -27 5 -17 2 9 2 25 0 35 -3 9 -5 1 -5 -18z"/>
<path d="M5228 1512 c-20 -2 -28 -9 -28 -23 0 -11 -7 -19 -17 -19 -21 0 -125
-89 -105 -90 22 0 83 29 114 55 30 25 58 33 58 16 0 -5 -4 -11 -9 -13 -10 -4
-107 -200 -103 -210 1 -5 -2 -8 -8 -8 -6 0 -10 -6 -10 -14 0 -9 16 -18 43 -23
l42 -9 -4 -54 c-1 -30 -10 -71 -18 -90 -9 -20 -18 -89 -23 -165 -5 -71 -14
-148 -21 -170 -7 -22 -13 -85 -14 -140 -2 -101 -23 -338 -32 -365 -9 -23 -31
57 -32 113 -1 34 3 47 13 47 16 0 25 19 19 38 -7 20 -31 14 -39 -10 -11 -37
-25 -50 -40 -37 -9 7 -19 7 -35 -1 -12 -7 -17 -15 -12 -19 13 -8 27 -71 16
-71 -4 0 -20 12 -35 25 -22 19 -28 33 -28 65 0 22 -4 40 -9 40 -11 0 -21 -35
-21 -72 0 -37 -12 -35 -33 5 -23 41 -24 119 -4 252 8 55 14 112 13 127 -1 34
-16 49 -16 17 0 -13 -9 -60 -20 -104 -17 -68 -19 -99 -14 -205 3 -70 12 -134
18 -145 17 -27 28 -85 17 -85 -5 0 -15 17 -21 38 -7 20 -16 41 -21 47 -5 5 -9
27 -10 50 0 22 -3 34 -6 28 -9 -24 -28 -13 -47 27 -16 33 -18 53 -13 122 3 46
15 115 27 153 48 157 68 255 53 255 -11 0 -73 -133 -73 -156 0 -16 -3 -15 -27
8 l-27 27 19 35 c11 20 39 57 62 83 24 26 43 48 43 48 0 1 -16 -1 -35 -3 -60
-7 -99 5 -118 38 -10 17 -25 30 -33 30 -20 0 -18 18 4 23 9 2 -4 4 -29 3 l-46
-1 37 -50 c81 -108 87 -135 98 -438 4 -122 11 -200 18 -205 15 -10 38 -56 69
-140 22 -60 25 -78 16 -95 -19 -38 -35 -60 -56 -79 -19 -17 -11 -17 204 -18
l224 0 -8 43 c-11 61 -10 114 4 179 8 40 9 63 2 77 -25 46 -14 350 19 545 11
65 34 159 50 208 30 89 30 93 28 277 l-3 186 -27 -3z m-228 -1311 c0 -5 -7
-14 -15 -21 -18 -15 -42 1 -31 19 8 13 46 15 46 2z"/>
<path d="M3400 1374 c0 -8 5 -12 10 -9 6 3 10 10 10 16 0 5 -4 9 -10 9 -5 0
-10 -7 -10 -16z"/>
<path d="M4420 1332 c0 -12 7 -25 15 -29 24 -9 25 0 5 27 l-20 25 0 -23z"/>
<path d="M4355 1279 c4 -24 8 -55 9 -69 1 -14 6 -23 11 -20 6 3 9 14 8 25 -6
56 -16 96 -25 101 -7 4 -8 -9 -3 -37z"/>
<path d="M3361 1274 c0 -11 3 -14 6 -6 3 7 2 16 -1 19 -3 4 -6 -2 -5 -13z"/>
<path d="M1240 1213 c-6 -27 -19 -64 -28 -83 -30 -67 -41 -95 -68 -172 -20
-60 -31 -78 -45 -78 -19 0 -26 -20 -12 -34 4 -4 6 -23 4 -42 -4 -54 10 -64 65
-46 l46 15 -6 59 c-5 42 -3 72 8 101 8 23 20 63 27 89 7 26 16 45 19 43 6 -4
7 -1 16 113 7 93 -6 111 -26 35z"/>
<path d="M5076 1191 c-11 -4 -15 -10 -10 -12 16 -9 37 -4 42 9 4 13 -4 14 -32
3z"/>
<path d="M160 1156 c0 -7 16 -26 35 -40 64 -49 188 -53 273 -11 43 22 36 28
-19 16 -24 -6 -62 -11 -85 -11 -45 0 -130 25 -155 46 -20 18 -49 18 -49 0z"/>
<path d="M5078 1153 c7 -3 16 -2 19 1 4 3 -2 6 -13 5 -11 0 -14 -3 -6 -6z"/>
<path d="M142 1130 c0 -14 2 -19 5 -12 2 6 2 18 0 25 -3 6 -5 1 -5 -13z"/>
<path d="M3246 1121 c-3 -5 1 -12 10 -15 14 -5 12 -11 -11 -41 -14 -20 -25
-41 -23 -47 4 -11 78 90 78 106 0 9 -48 7 -54 -3z"/>
<path d="M971 1101 c-9 -6 -6 -14 15 -30 14 -11 30 -21 35 -21 15 0 39 -63 39
-104 0 -28 3 -37 9 -27 5 8 7 29 4 48 -8 45 13 43 21 -2 9 -46 20 -45 23 2 1
21 7 39 12 41 6 2 11 12 11 23 0 11 6 22 13 25 7 2 14 15 15 29 2 22 -1 24
-24 15 -32 -13 -120 -13 -143 -1 -9 5 -23 6 -30 2z"/>
<path d="M4920 1078 l-35 -10 45 -14 c40 -12 46 -12 62 5 29 32 -2 40 -72 19z"/>
<path d="M152 1050 c0 -14 2 -19 5 -12 2 6 2 18 0 25 -3 6 -5 1 -5 -13z"/>
<path d="M4929 1008 c0 -2 -3 -18 -5 -35 -7 -44 8 -42 22 2 9 28 8 35 -2 35
-8 0 -14 -1 -15 -2z"/>
<path d="M3207 993 c-9 -14 -36 -97 -33 -100 1 -2 13 20 25 48 13 27 21 52 18
55 -3 3 -7 1 -10 -3z"/>
<path d="M1253 905 c0 -44 2 -61 4 -37 2 23 2 59 0 80 -2 20 -4 1 -4 -43z"/>
<path d="M160 961 c0 -6 4 -13 10 -16 6 -3 7 1 4 9 -7 18 -14 21 -14 7z"/>
<path d="M186 880 c10 -61 38 -137 42 -114 2 11 -8 50 -23 85 -17 44 -23 53
-19 29z"/>
<path d="M3134 834 c-4 -10 -18 -30 -31 -43 -15 -15 -21 -31 -17 -45 3 -12 -6
-47 -21 -79 -39 -90 -29 -91 14 -2 39 80 73 176 66 184 -3 2 -8 -5 -11 -15z"/>
<path d="M1250 797 c0 -31 -48 -97 -70 -97 -20 0 -9 -43 30 -115 22 -41 40
-83 40 -95 0 -11 5 -20 10 -20 13 0 13 310 0 330 -8 13 -10 12 -10 -3z"/>
<path d="M3946 494 c-7 -125 3 -521 12 -481 5 22 22 22 23 0 0 -15 2 -15 9 2
7 17 9 17 9 3 1 -16 14 -18 120 -18 86 0 121 3 124 13 4 9 7 9 18 0 9 -9 58
-13 171 -13 136 0 157 2 152 15 -4 8 -11 15 -18 15 -6 0 -17 9 -24 20 -7 11
-18 20 -25 20 -6 0 -30 18 -51 40 -22 22 -45 40 -53 40 -7 0 -18 9 -25 20 -7
11 -23 20 -35 20 -13 0 -24 8 -28 20 -3 11 -11 20 -17 20 -15 0 -215 206 -232
239 -8 15 -26 36 -40 45 -15 9 -26 24 -26 34 0 15 -2 15 -10 2 -8 -12 -10 -12
-10 5 0 11 -8 33 -19 48 l-18 28 -7 -137z"/>
<path d="M5042 550 c0 -41 4 -86 8 -100 11 -34 11 56 0 125 -7 48 -7 47 -8
-25z"/>
<path d="M4937 604 c-16 -16 -7 -119 13 -149 11 -16 20 -47 20 -67 0 -21 5
-38 11 -38 8 0 9 19 3 63 -4 34 -10 91 -13 126 -6 60 -17 82 -34 65z"/>
<path d="M3001 518 c-28 -74 -198 -355 -273 -451 -21 -27 -38 -53 -38 -58 0
-5 104 -9 245 -9 205 0 245 2 245 14 0 8 -14 77 -31 153 -30 135 -99 334 -125
362 -11 12 -15 11 -23 -11z"/>
<path d="M810 150 c0 -32 -26 -43 -36 -15 -11 27 -24 5 -24 -40 0 -24 -4 -47
-10 -50 -11 -7 -25 39 -15 54 3 6 1 11 -4 11 -6 0 -11 -19 -11 -43 0 -24 -5
-48 -12 -55 -9 -9 5 -12 63 -12 l74 0 18 43 c23 56 22 72 -3 47 -31 -31 -37
-24 -32 35 2 30 2 55 -2 55 -3 0 -6 -13 -6 -30z"/>
<path d="M3591 14 c0 -11 3 -14 6 -6 3 7 2 16 -1 19 -3 4 -6 -2 -5 -13z"/>
</g>
</svg>
